<svg xmlns="http://www.w3.org/2000/svg" version="1.1" xmlns:xlink="http://www.w3.org/1999/xlink" xmlns:svgjs="http://svgjs.dev/svgjs" viewBox="0 0 800 800"><rect width="100%" height="100%" fill="hsl(0, 0%, 0%)"></rect><g fill="#eec52b"><rect width="792" height="1" x="-179" y="763.5" rx="0.5" transform="rotate(180, 217, 764)" opacity="0.40"></rect><rect width="508" height="1" x="306" y="55.5" rx="0.5" transform="rotate(180, 560, 56)" opacity="0.56"></rect><rect width="649" height="1" x="43.5" y="434.5" rx="0.5" transform="rotate(180, 368, 435)" opacity="0.41"></rect><rect width="80" height="1" x="-20" y="590.5" rx="0.5" transform="rotate(180, 20, 591)" opacity="0.75"></rect><rect width="456" height="1" x="422" y="465.5" rx="0.5" transform="rotate(180, 650, 466)" opacity="0.99"></rect><rect width="207" height="1" x="44.5" y="563.5" rx="0.5" transform="rotate(180, 148, 564)" opacity="0.73"></rect><rect width="534" height="1" x="229" y="705.5" rx="0.5" transform="rotate(180, 496, 706)" opacity="0.96"></rect><rect width="643" height="1" x="262.5" y="154.5" rx="0.5" transform="rotate(180, 584, 155)" opacity="0.34"></rect><rect width="313" height="1" x="-113.5" y="203.5" rx="0.5" transform="rotate(180, 43, 204)" opacity="0.39"></rect><rect width="405" height="1" x="116.5" y="493.5" rx="0.5" transform="rotate(180, 319, 494)" opacity="0.55"></rect><rect width="923" height="1" x="260.5" y="666.5" rx="0.5" transform="rotate(180, 722, 667)" opacity="0.96"></rect><rect width="318" height="1" x="-120" y="140.5" rx="0.5" transform="rotate(180, 39, 141)" opacity="0.65"></rect><rect width="642" height="1" x="-54" y="544.5" rx="0.5" transform="rotate(180, 267, 545)" opacity="0.87"></rect><rect width="195" height="1" x="399.5" y="127.5" rx="0.5" transform="rotate(180, 497, 128)" opacity="0.26"></rect><rect width="326" height="1" x="609" y="272.5" rx="0.5" transform="rotate(180, 772, 273)" opacity="0.83"></rect><rect width="369" height="1" x="399.5" y="511.5" rx="0.5" transform="rotate(180, 584, 512)" opacity="0.12"></rect><rect width="951" height="1" x="189.5" y="186.5" rx="0.5" transform="rotate(180, 665, 187)" opacity="0.48"></rect><rect width="434" height="1" x="3" y="87.5" rx="0.5" transform="rotate(180, 220, 88)" opacity="0.95"></rect><rect width="1135" height="1" x="-217.5" y="248.5" rx="0.5" transform="rotate(180, 350, 249)" opacity="0.58"></rect><rect width="1001" height="1" x="-261.5" y="150.5" rx="0.5" transform="rotate(180, 239, 151)" opacity="0.84"></rect><rect width="697" height="1" x="-254.5" y="521.5" rx="0.5" transform="rotate(180, 94, 522)" opacity="0.27"></rect><rect width="622" height="1" x="200" y="548.5" rx="0.5" transform="rotate(180, 511, 549)" opacity="0.39"></rect><rect width="943" height="1" x="189.5" y="372.5" rx="0.5" transform="rotate(180, 661, 373)" opacity="0.28"></rect><rect width="425" height="1" x="235.5" y="733.5" rx="0.5" transform="rotate(180, 448, 734)" opacity="0.58"></rect><rect width="891" height="1" x="169.5" y="32.5" rx="0.5" transform="rotate(180, 615, 33)" opacity="0.93"></rect><rect width="841" height="1" x="281.5" y="110.5" rx="0.5" transform="rotate(180, 702, 111)" opacity="0.91"></rect><rect width="580" height="1" x="476" y="723.5" rx="0.5" transform="rotate(180, 766, 724)" opacity="0.86"></rect><rect width="773" height="1" x="-251.5" y="282.5" rx="0.5" transform="rotate(180, 135, 283)" opacity="0.92"></rect><rect width="649" height="1" x="394.5" y="436.5" rx="0.5" transform="rotate(180, 719, 437)" opacity="0.95"></rect><rect width="797" height="1" x="-31.5" y="544.5" rx="0.5" transform="rotate(180, 367, 545)" opacity="0.62"></rect><rect width="330" height="1" x="-122" y="295.5" rx="0.5" transform="rotate(180, 43, 296)" opacity="0.99"></rect><rect width="180" height="1" x="261" y="72.5" rx="0.5" transform="rotate(180, 351, 73)" opacity="0.70"></rect><rect width="573" height="1" x="-13.5" y="78.5" rx="0.5" transform="rotate(180, 273, 79)" opacity="0.09"></rect><rect width="601" height="1" x="363.5" y="600.5" rx="0.5" transform="rotate(180, 664, 601)" opacity="0.76"></rect><rect width="176" height="1" x="399" y="272.5" rx="0.5" transform="rotate(180, 487, 273)" opacity="0.65"></rect><rect width="314" height="1" x="42" y="18.5" rx="0.5" transform="rotate(180, 199, 19)" opacity="0.99"></rect><rect width="424" height="1" x="-55" y="75.5" rx="0.5" transform="rotate(180, 157, 76)" opacity="0.53"></rect><rect width="845" height="1" x="26.5" y="533.5" rx="0.5" transform="rotate(180, 449, 534)" opacity="0.29"></rect><rect width="557" height="1" x="298.5" y="433.5" rx="0.5" transform="rotate(180, 577, 434)" opacity="0.88"></rect><rect width="619" height="1" x="97.5" y="38.5" rx="0.5" transform="rotate(180, 407, 39)" opacity="0.20"></rect><rect width="446" height="1" x="356" y="581.5" rx="0.5" transform="rotate(180, 579, 582)" opacity="0.91"></rect><rect width="225" height="1" x="192.5" y="694.5" rx="0.5" transform="rotate(180, 305, 695)" opacity="0.60"></rect><rect width="193" height="1" x="615.5" y="330.5" rx="0.5" transform="rotate(180, 712, 331)" opacity="0.68"></rect><rect width="210" height="1" x="443" y="713.5" rx="0.5" transform="rotate(180, 548, 714)" opacity="0.86"></rect><rect width="901" height="1" x="313.5" y="166.5" rx="0.5" transform="rotate(180, 764, 167)" opacity="0.63"></rect><rect width="159" height="1" x="309.5" y="11.5" rx="0.5" transform="rotate(180, 389, 12)" opacity="0.58"></rect><rect width="316" height="1" x="486" y="645.5" rx="0.5" transform="rotate(180, 644, 646)" opacity="0.18"></rect><rect width="278" height="1" x="334" y="640.5" rx="0.5" transform="rotate(180, 473, 641)" opacity="0.53"></rect><rect width="595" height="1" x="468.5" y="402.5" rx="0.5" transform="rotate(180, 766, 403)" opacity="0.50"></rect><rect width="562" height="1" x="-189" y="82.5" rx="0.5" transform="rotate(180, 92, 83)" opacity="0.53"></rect><rect width="465" height="1" x="105.5" y="766.5" rx="0.5" transform="rotate(180, 338, 767)" opacity="0.83"></rect><rect width="330" height="1" x="349" y="482.5" rx="0.5" transform="rotate(180, 514, 483)" opacity="0.67"></rect><rect width="237" height="1" x="176.5" y="36.5" rx="0.5" transform="rotate(180, 295, 37)" opacity="0.39"></rect><rect width="769" height="1" x="64.5" y="450.5" rx="0.5" transform="rotate(180, 449, 451)" opacity="0.17"></rect><rect width="575" height="1" x="26.5" y="402.5" rx="0.5" transform="rotate(180, 314, 403)" opacity="0.43"></rect><rect width="82" height="1" x="306" y="139.5" rx="0.5" transform="rotate(180, 347, 140)" opacity="0.64"></rect><rect width="436" height="1" x="229" y="131.5" rx="0.5" transform="rotate(180, 447, 132)" opacity="0.17"></rect><rect width="323" height="1" x="545.5" y="521.5" rx="0.5" transform="rotate(180, 707, 522)" opacity="0.40"></rect><rect width="776" height="1" x="-353" y="763.5" rx="0.5" transform="rotate(180, 35, 764)" opacity="0.16"></rect><rect width="461" height="1" x="-39.5" y="697.5" rx="0.5" transform="rotate(180, 191, 698)" opacity="0.46"></rect><rect width="687" height="1" x="-56.5" y="293.5" rx="0.5" transform="rotate(180, 287, 294)" opacity="0.98"></rect><rect width="304" height="1" x="319" y="184.5" rx="0.5" transform="rotate(180, 471, 185)" opacity="0.93"></rect><rect width="260" height="1" x="590" y="593.5" rx="0.5" transform="rotate(180, 720, 594)" opacity="0.89"></rect><rect width="122" height="1" x="66" y="474.5" rx="0.5" transform="rotate(180, 127, 475)" opacity="0.47"></rect><rect width="690" height="1" x="-148" y="307.5" rx="0.5" transform="rotate(180, 197, 308)" opacity="0.70"></rect><rect width="257" height="1" x="248.5" y="715.5" rx="0.5" transform="rotate(180, 377, 716)" opacity="0.37"></rect><rect width="673" height="1" x="-222.5" y="229.5" rx="0.5" transform="rotate(180, 114, 230)" opacity="0.42"></rect><rect width="22" height="1" x="274" y="763.5" rx="0.5" transform="rotate(180, 285, 764)" opacity="0.73"></rect><rect width="393" height="1" x="106.5" y="109.5" rx="0.5" transform="rotate(180, 303, 110)" opacity="0.14"></rect><rect width="532" height="1" x="-83" y="122.5" rx="0.5" transform="rotate(180, 183, 123)" opacity="0.16"></rect><rect width="977" height="1" x="137.5" y="106.5" rx="0.5" transform="rotate(180, 626, 107)" opacity="0.76"></rect><rect width="379" height="1" x="213.5" y="155.5" rx="0.5" transform="rotate(180, 403, 156)" opacity="0.89"></rect><rect width="734" height="1" x="13" y="345.5" rx="0.5" transform="rotate(180, 380, 346)" opacity="0.67"></rect><rect width="706" height="1" x="266" y="772.5" rx="0.5" transform="rotate(180, 619, 773)" opacity="0.51"></rect><rect width="158" height="1" x="-7" y="647.5" rx="0.5" transform="rotate(180, 72, 648)" opacity="0.77"></rect><rect width="710" height="1" x="145" y="321.5" rx="0.5" transform="rotate(180, 500, 322)" opacity="0.21"></rect><rect width="777" height="1" x="295.5" y="708.5" rx="0.5" transform="rotate(180, 684, 709)" opacity="0.95"></rect><rect width="192" height="1" x="303" y="493.5" rx="0.5" transform="rotate(180, 399, 494)" opacity="0.26"></rect><rect width="155" height="1" x="338.5" y="593.5" rx="0.5" transform="rotate(180, 416, 594)" opacity="0.31"></rect><rect width="57" height="1" x="402.5" y="372.5" rx="0.5" transform="rotate(180, 431, 373)" opacity="0.78"></rect><rect width="140" height="1" x="49" y="131.5" rx="0.5" transform="rotate(180, 119, 132)" opacity="0.53"></rect><rect width="138" height="1" x="272" y="23.5" rx="0.5" transform="rotate(180, 341, 24)" opacity="0.34"></rect><rect width="739" height="1" x="-179.5" y="453.5" rx="0.5" transform="rotate(180, 190, 454)" opacity="0.86"></rect><rect width="780" height="1" x="382" y="339.5" rx="0.5" transform="rotate(180, 772, 340)" opacity="0.49"></rect><rect width="204" height="1" x="503" y="361.5" rx="0.5" transform="rotate(180, 605, 362)" opacity="0.33"></rect><rect width="318" height="1" x="-32" y="616.5" rx="0.5" transform="rotate(180, 127, 617)" opacity="0.32"></rect><rect width="1052" height="1" x="-288" y="368.5" rx="0.5" transform="rotate(180, 238, 369)" opacity="0.47"></rect><rect width="1057" height="1" x="157.5" y="32.5" rx="0.5" transform="rotate(180, 686, 33)" opacity="0.08"></rect><rect width="147" height="1" x="426.5" y="398.5" rx="0.5" transform="rotate(180, 500, 399)" opacity="0.70"></rect><rect width="567" height="1" x="494.5" y="671.5" rx="0.5" transform="rotate(180, 778, 672)" opacity="0.43"></rect><rect width="785" height="1" x="-355.5" y="439.5" rx="0.5" transform="rotate(180, 37, 440)" opacity="0.91"></rect><rect width="666" height="1" x="1" y="590.5" rx="0.5" transform="rotate(180, 334, 591)" opacity="0.22"></rect><rect width="217" height="1" x="331.5" y="672.5" rx="0.5" transform="rotate(180, 440, 673)" opacity="0.74"></rect><rect width="155" height="1" x="70.5" y="29.5" rx="0.5" transform="rotate(180, 148, 30)" opacity="0.24"></rect><rect width="819" height="1" x="-7.5" y="91.5" rx="0.5" transform="rotate(180, 402, 92)" opacity="0.41"></rect><rect width="755" height="1" x="-138.5" y="667.5" rx="0.5" transform="rotate(180, 239, 668)" opacity="0.42"></rect><rect width="117" height="1" x="11.5" y="688.5" rx="0.5" transform="rotate(180, 70, 689)" opacity="0.55"></rect><rect width="123" height="1" x="201.5" y="14.5" rx="0.5" transform="rotate(180, 263, 15)" opacity="0.99"></rect><rect width="657" height="1" x="84.5" y="773.5" rx="0.5" transform="rotate(180, 413, 774)" opacity="0.20"></rect><rect width="443" height="1" x="278.5" y="773.5" rx="0.5" transform="rotate(180, 500, 774)" opacity="0.79"></rect><rect width="715" height="1" x="-216.5" y="376.5" rx="0.5" transform="rotate(180, 141, 377)" opacity="0.87"></rect><rect width="90" height="1" x="526" y="236.5" rx="0.5" transform="rotate(180, 571, 237)" opacity="0.61"></rect><rect width="698" height="1" x="-239" y="774.5" rx="0.5" transform="rotate(180, 110, 775)" opacity="0.40"></rect><rect width="369" height="1" x="73.5" y="725.5" rx="0.5" transform="rotate(180, 258, 726)" opacity="0.56"></rect><rect width="421" height="1" x="408.5" y="714.5" rx="0.5" transform="rotate(180, 619, 715)" opacity="0.45"></rect><rect width="628" height="1" x="149" y="20.5" rx="0.5" transform="rotate(180, 463, 21)" opacity="0.69"></rect><rect width="905" height="1" x="-390.5" y="379.5" rx="0.5" transform="rotate(180, 62, 380)" opacity="0.71"></rect><rect width="116" height="1" x="692" y="770.5" rx="0.5" transform="rotate(180, 750, 771)" opacity="0.45"></rect><rect width="693" height="1" x="-18.5" y="339.5" rx="0.5" transform="rotate(180, 328, 340)" opacity="0.42"></rect><rect width="974" height="1" x="187" y="274.5" rx="0.5" transform="rotate(180, 674, 275)" opacity="0.36"></rect><rect width="460" height="1" x="-199" y="87.5" rx="0.5" transform="rotate(180, 31, 88)" opacity="0.15"></rect><rect width="475" height="1" x="-217.5" y="681.5" rx="0.5" transform="rotate(180, 20, 682)" opacity="0.35"></rect><rect width="728" height="1" x="-58" y="194.5" rx="0.5" transform="rotate(180, 306, 195)" opacity="0.55"></rect><rect width="634" height="1" x="409" y="235.5" rx="0.5" transform="rotate(180, 726, 236)" opacity="0.67"></rect><rect width="110" height="1" x="708" y="53.5" rx="0.5" transform="rotate(180, 763, 54)" opacity="0.59"></rect><rect width="439" height="1" x="336.5" y="337.5" rx="0.5" transform="rotate(180, 556, 338)" opacity="0.56"></rect><rect width="506" height="1" x="422" y="769.5" rx="0.5" transform="rotate(180, 675, 770)" opacity="0.88"></rect><rect width="902" height="1" x="-249" y="534.5" rx="0.5" transform="rotate(180, 202, 535)" opacity="0.36"></rect><rect width="1028" height="1" x="-138" y="653.5" rx="0.5" transform="rotate(180, 376, 654)" opacity="0.34"></rect><rect width="263" height="1" x="19.5" y="182.5" rx="0.5" transform="rotate(180, 151, 183)" opacity="0.08"></rect><rect width="94" height="1" x="352" y="207.5" rx="0.5" transform="rotate(180, 399, 208)" opacity="0.39"></rect><rect width="537" height="1" x="375.5" y="548.5" rx="0.5" transform="rotate(180, 644, 549)" opacity="0.11"></rect><rect width="87" height="1" x="182.5" y="47.5" rx="0.5" transform="rotate(180, 226, 48)" opacity="0.95"></rect><rect width="69" height="1" x="736.5" y="509.5" rx="0.5" transform="rotate(180, 771, 510)" opacity="0.54"></rect><rect width="779" height="1" x="-218.5" y="767.5" rx="0.5" transform="rotate(180, 171, 768)" opacity="0.95"></rect><rect width="208" height="1" x="361" y="231.5" rx="0.5" transform="rotate(180, 465, 232)" opacity="0.18"></rect><rect width="228" height="1" x="-31" y="724.5" rx="0.5" transform="rotate(180, 83, 725)" opacity="0.52"></rect><rect width="744" height="1" x="-232" y="662.5" rx="0.5" transform="rotate(180, 140, 663)" opacity="0.21"></rect><rect width="126" height="1" x="431" y="600.5" rx="0.5" transform="rotate(180, 494, 601)" opacity="0.15"></rect><rect width="328" height="1" x="93" y="785.5" rx="0.5" transform="rotate(180, 257, 786)" opacity="0.44"></rect><rect width="760" height="1" x="187" y="768.5" rx="0.5" transform="rotate(180, 567, 769)" opacity="0.35"></rect><rect width="25" height="1" x="516.5" y="20.5" rx="0.5" transform="rotate(180, 529, 21)" opacity="0.18"></rect><rect width="231" height="1" x="22.5" y="719.5" rx="0.5" transform="rotate(180, 138, 720)" opacity="0.65"></rect><rect width="737" height="1" x="159.5" y="187.5" rx="0.5" transform="rotate(180, 528, 188)" opacity="0.34"></rect><rect width="734" height="1" x="406" y="604.5" rx="0.5" transform="rotate(180, 773, 605)" opacity="0.89"></rect><rect width="211" height="1" x="359.5" y="70.5" rx="0.5" transform="rotate(180, 465, 71)" opacity="0.11"></rect><rect width="888" height="1" x="-149" y="632.5" rx="0.5" transform="rotate(180, 295, 633)" opacity="0.81"></rect><rect width="663" height="1" x="207.5" y="637.5" rx="0.5" transform="rotate(180, 539, 638)" opacity="0.85"></rect><rect width="867" height="1" x="-201.5" y="229.5" rx="0.5" transform="rotate(180, 232, 230)" opacity="0.69"></rect><rect width="30" height="1" x="73" y="578.5" rx="0.5" transform="rotate(180, 88, 579)" opacity="0.36"></rect><rect width="1078" height="1" x="-505" y="515.5" rx="0.5" transform="rotate(180, 34, 516)" opacity="0.58"></rect><rect width="541" height="1" x="264.5" y="95.5" rx="0.5" transform="rotate(180, 535, 96)" opacity="0.36"></rect><rect width="155" height="1" x="-46.5" y="31.5" rx="0.5" transform="rotate(180, 31, 32)" opacity="0.79"></rect><rect width="313" height="1" x="256.5" y="287.5" rx="0.5" transform="rotate(180, 413, 288)" opacity="0.48"></rect><rect width="165" height="1" x="534.5" y="275.5" rx="0.5" transform="rotate(180, 617, 276)" opacity="0.35"></rect><rect width="1233" height="1" x="-360.5" y="445.5" rx="0.5" transform="rotate(180, 256, 446)" opacity="0.33"></rect><rect width="528" height="1" x="-171" y="23.5" rx="0.5" transform="rotate(180, 93, 24)" opacity="0.32"></rect><rect width="532" height="1" x="-211" y="607.5" rx="0.5" transform="rotate(180, 55, 608)" opacity="0.17"></rect><rect width="598" height="1" x="289" y="659.5" rx="0.5" transform="rotate(180, 588, 660)" opacity="0.93"></rect><rect width="942" height="1" x="-262" y="612.5" rx="0.5" transform="rotate(180, 209, 613)" opacity="0.61"></rect></g></svg>